<?xml version="1.0" encoding="UTF-8" standalone="no"?>
<!-- Created with Inkscape (http://www.inkscape.org/) -->

<svg
   version="1.1"
   id="svg275"
   width="128"
   height="128"
   viewBox="0 0 128 128"
   sodipodi:docname="indicator.svg"
   inkscape:version="1.2.2 (732a01da63, 2022-12-09)"
   xmlns:inkscape="http://www.inkscape.org/namespaces/inkscape"
   xmlns:sodipodi="http://sodipodi.sourceforge.net/DTD/sodipodi-0.dtd"
   xmlns="http://www.w3.org/2000/svg"
   xmlns:svg="http://www.w3.org/2000/svg">
  <defs
     id="defs279" />
  <sodipodi:namedview
     id="namedview277"
     pagecolor="#ffffff"
     bordercolor="#000000"
     borderopacity="0.25"
     inkscape:showpageshadow="2"
     inkscape:pageopacity="0.0"
     inkscape:pagecheckerboard="0"
     inkscape:deskcolor="#d1d1d1"
     showgrid="false"
     inkscape:zoom="3.7477876"
     inkscape:cx="83.115703"
     inkscape:cy="60.569067"
     inkscape:window-width="1920"
     inkscape:window-height="1027"
     inkscape:window-x="-8"
     inkscape:window-y="-8"
     inkscape:window-maximized="1"
     inkscape:current-layer="g281" />
  <g
     inkscape:groupmode="layer"
     inkscape:label="Image"
     id="g281">
    <path
       id="path307"
       style="display:inline;fill:#50a8fd;fill-opacity:1;stroke-width:1.18026"
       d="M 64,0 A 64,64 0 0 0 0,64 64,64 0 0 0 64,128 64,64 0 0 0 128,64 64,64 0 0 0 64,0 Z m 0,11.636364 A 52.363636,52.363636 0 0 1 116.36364,64 52.363636,52.363636 0 0 1 64,116.36364 52.363636,52.363636 0 0 1 11.636364,64 52.363636,52.363636 0 0 1 64,11.636364 Z" />
    <path
       d="m 61.61,122.31 c -1.34,0.62 -2.82,0.72 -4.15,0.37 -1.46,-0.39 -2.75,-1.31 -3.55,-2.67 L 39.03,94.36 24.88,110.24 c -1.97,2.21 -4.21,3.88 -6.37,4.75 -1.66,0.67 -3.31,0.88 -4.84,0.56 -1.69,-0.36 -3.14,-1.33 -4.2,-3.01 -0.84,-1.33 -1.4,-3.11 -1.57,-5.39 L 0.01,4.41 C 0,4.33 0,4.25 0,4.18 -0.01,3.54 0.11,2.91 0.37,2.34 0.66,1.68 1.13,1.08 1.74,0.64 2,0.44 2.28,0.31 2.58,0.23 3.17,0.03 3.78,-0.04 4.37,0.03 4.94,0.09 5.5,0.26 6.01,0.55 6.18,0.63 6.35,0.73 6.5,0.85 l 84.88,58.11 c 1.88,1.29 3.14,2.66 3.88,4.05 0.93,1.75 1.04,3.49 0.5,5.14 -0.48,1.49 -1.5,2.81 -2.9,3.91 -1.82,1.43 -4.39,2.54 -7.3,3.14 -0.03,0.01 -0.07,0.01 -0.1,0.02 l -20.73,4.29 14.77,25.73 c 0.78,1.36 0.93,2.94 0.54,4.39 -0.38,1.41 -1.27,2.71 -2.59,3.56 -0.05,0.04 -0.11,0.07 -0.17,0.1 l -15.34,8.86 c -0.1,0.06 -0.21,0.11 -0.33,0.16 z m -2.77,-4.83 c 0.15,0.04 0.3,0.04 0.44,-0.01 0.05,-0.03 0.1,-0.06 0.16,-0.08 l 15.14,-8.74 c 0.14,-0.1 0.23,-0.25 0.28,-0.41 0.03,-0.13 0.03,-0.25 -0.01,-0.33 L 58.23,78.97 h 0.01 C 58.1,78.73 58,78.46 57.94,78.17 57.64,76.72 58.58,75.3 60.03,75 l 24.36,-5.04 c 0.03,-0.01 0.06,-0.02 0.1,-0.02 2.1,-0.44 3.88,-1.18 5.07,-2.11 0.58,-0.46 0.97,-0.91 1.11,-1.35 0.09,-0.27 0.05,-0.6 -0.15,-0.97 -0.34,-0.64 -1.03,-1.34 -2.15,-2.11 L 5.58,6.74 13.27,106.76 c 0.1,1.36 0.37,2.32 0.75,2.92 0.22,0.35 0.49,0.55 0.77,0.61 0.45,0.1 1.04,-0.01 1.72,-0.28 1.39,-0.56 2.92,-1.73 4.35,-3.34 L 37.48,88.02 v 0 c 0.19,-0.21 0.41,-0.39 0.66,-0.54 1.28,-0.74 2.93,-0.31 3.67,0.98 l 16.75,28.85 c 0.06,0.08 0.15,0.14 0.28,0.17 z m 0.59,-0.09 c 0.35,-0.17 0.75,-0.27 1.17,-0.27 z"
       id="path68"
       style="display:none"
       transform="matrix(0.16820518,0.0224434,-0.0224434,0.16820518,64.168561,64.029344)" />
    <path
       d="M 29.96,67.49 C 29.8,67.4 29.64,67.3 29.49,67.18 c -1.95,-1.56 -4.08,-3.29 -5.94,-4.81 -2.69,-2.2 -5.8,-4.76 -7.97,-6.55 -1.49,-1.23 -3.17,-2.07 -4.75,-2.39 -1.02,-0.2 -1.95,-0.18 -2.67,0.12 -0.59,0.24 -1.1,0.72 -1.45,1.48 -0.45,0.99 -0.66,2.41 -0.54,4.32 0.11,1.69 0.7,3.55 1.48,5.33 1.16,2.63 2.73,5.04 3.89,6.59 0.07,0.09 0.13,0.19 0.19,0.29 l 23.32,33.31 c 0.3,0.43 0.47,0.91 0.53,1.4 h 0.01 c 0.46,3.85 1.28,6.73 2.49,8.54 0.88,1.31 2.01,1.98 3.42,1.94 h 0.07 v -0.01 h 36.38 c 0.09,0 0.17,0 0.26,0.01 2.28,-0.03 4.36,-0.71 6.25,-2.02 2.09,-1.44 3.99,-3.68 5.72,-6.7 0.03,-0.05 0.06,-0.11 0.1,-0.16 0.67,-1.15 1.55,-2.6 2.41,-4.02 3.72,-6.13 6.96,-11.45 7.35,-19.04 L 99.8,74.34 c -0.02,-0.15 -0.03,-0.3 -0.03,-0.45 0,-0.14 0.02,-1.13 0.03,-2.46 0.09,-6.92 0.19,-15.48 -6.14,-16.56 h -4.05 -0.04 c -0.02,1.95 -0.15,3.93 -0.27,5.86 -0.11,1.71 -0.21,3.37 -0.21,4.95 0,1.7 -1.38,3.08 -3.08,3.08 -1.7,0 -3.08,-1.38 -3.08,-3.08 0,-1.58 0.12,-3.42 0.24,-5.33 0.41,-6.51 0.89,-13.99 -4.33,-14.93 H 74.8 c -0.23,0 -0.45,-0.02 -0.66,-0.07 0.04,2.36 -0.12,4.81 -0.27,7.16 -0.11,1.71 -0.21,3.37 -0.21,4.95 0,1.7 -1.38,3.08 -3.08,3.08 -1.7,0 -3.08,-1.38 -3.08,-3.08 0,-1.58 0.12,-3.42 0.24,-5.33 0.41,-6.51 0.89,-13.99 -4.33,-14.93 h -4.05 c -0.28,0 -0.55,-0.04 -0.8,-0.11 V 49 c 0,1.7 -1.38,3.08 -3.08,3.08 -1.7,0 -3.08,-1.38 -3.08,-3.08 V 17.05 C 52.4,11.7 50.22,8.32 47.43,6.91 46.41,6.39 45.31,6.13 44.22,6.13 c -1.08,0 -2.18,0.26 -3.19,0.77 -2.76,1.4 -4.92,4.79 -4.92,10.28 v 56 c 0,1.7 -1.38,3.08 -3.08,3.08 -1.7,0 -3.08,-1.38 -3.08,-3.08 V 67.49 Z M 58.57,31.15 c 0.26,-0.07 0.53,-0.11 0.8,-0.11 h 4.24 c 0.24,0 0.47,0.03 0.69,0.08 5.65,0.88 8.17,4.18 9.2,8.43 0.39,-0.18 0.83,-0.29 1.3,-0.29 h 4.24 c 0.24,0 0.47,0.03 0.69,0.08 6.08,0.94 8.53,4.69 9.41,9.41 0.15,-0.02 0.31,-0.04 0.47,-0.04 h 4.24 c 0.24,0 0.47,0.03 0.69,0.08 11.64,1.8 11.5,13.37 11.38,22.71 0,0.33 -0.01,0.68 -0.01,2.35 v 0.07 l 0.24,10.77 c 0.01,0.11 0.01,0.23 0,0.34 -0.45,9.16 -4.07,15.12 -8.24,21.98 -0.7,1.14 -1.41,2.32 -2.34,3.93 -0.02,0.04 -0.04,0.08 -0.07,0.13 -2.18,3.8 -4.7,6.71 -7.57,8.69 -2.92,2.02 -6.16,3.06 -9.71,3.1 -0.09,0.01 -0.19,0.01 -0.28,0.01 H 41.58 v -0.01 c -3.66,0.07 -6.5,-1.53 -8.59,-4.66 -1.68,-2.51 -2.79,-6.03 -3.4,-10.47 L 6.73,75.07 C 6.7,75.03 6.66,74.99 6.63,74.95 5.27,73.13 3.42,70.3 2.04,67.16 1,64.8 0.21,62.24 0.05,59.74 c -0.2,-2.97 0.22,-5.36 1.06,-7.23 1.05,-2.32 2.72,-3.83 4.74,-4.66 1.89,-0.77 4.01,-0.88 6.16,-0.45 2.57,0.51 5.22,1.81 7.49,3.68 1.86,1.54 4.95,4.07 7.95,6.52 l 2.52,2.06 V 17.18 C 29.97,9.04 33.6,3.79 38.25,1.42 40.12,0.47 42.17,0 44.23,0 c 2.05,0 4.1,0.48 5.98,1.43 4.69,2.37 8.36,7.62 8.36,15.62 z"
       id="path68-5"
       transform="matrix(0.18130804,0,0,0.18130804,57.520069,63.97232)"
       style="display:inline" />
  </g>
</svg>
