<?xml version="1.0" encoding="UTF-8" standalone="no"?>
<svg
   id="screen_latest"
   data-name="screen latest"
   width="128"
   height="128"
   viewBox="0 0 128 128"
   version="1.1"
   sodipodi:docname="orientation.svg"
   inkscape:version="1.2.2 (732a01da63, 2022-12-09)"
   xmlns:inkscape="http://www.inkscape.org/namespaces/inkscape"
   xmlns:sodipodi="http://sodipodi.sourceforge.net/DTD/sodipodi-0.dtd"
   xmlns="http://www.w3.org/2000/svg"
   xmlns:svg="http://www.w3.org/2000/svg">
  <sodipodi:namedview
     id="namedview83"
     pagecolor="#ffffff"
     bordercolor="#000000"
     borderopacity="0.25"
     inkscape:showpageshadow="2"
     inkscape:pageopacity="0.0"
     inkscape:pagecheckerboard="0"
     inkscape:deskcolor="#d1d1d1"
     showgrid="false"
     inkscape:zoom="12.875"
     inkscape:cx="73.203884"
     inkscape:cy="52.815534"
     inkscape:window-width="1920"
     inkscape:window-height="1027"
     inkscape:window-x="-8"
     inkscape:window-y="-8"
     inkscape:window-maximized="1"
     inkscape:current-layer="screen_latest" />
  <defs
     id="defs74">
    <style
       id="style72">
      .cls-1 {
        fill: #f4f4f4;
      }

      .cls-2 {
        fill: #d2d2d2;
      }

      .cls-3 {
        fill: #b1b1b1;
      }

      .cls-4 {
        fill: #2b2b2b;
      }

      .cls-4, .cls-5 {
        fill-rule: evenodd;
      }

      .cls-5 {
        fill: #3c3c3c;
      }
    </style>
  </defs>
  <g
     id="g1019"
     transform="matrix(0,1.0941679,-1.0941563,0,172.00971,-65.725524)">
    <rect
       id="white-5-9"
       class="cls-1"
       x="74.495438"
       y="47.995163"
       width="88.597"
       height="54.142632"
       rx="1.757877"
       ry="1.7578776"
       style="fill:#f4f4f4;stroke-width:0.0878939" />
    <ellipse
       id="dot-2-8"
       class="cls-3"
       cx="118.61815"
       cy="96.600479"
       style="fill:#b1b1b1;stroke-width:0.0878939"
       rx="2.5489216"
       ry="2.5489225" />
    <path
       id="black-3-7"
       class="cls-4"
       d="M 74.495438,91.766317 V 44.830985 a 1.757877,1.7578776 0 0 1 1.757877,-1.757878 h 85.081245 a 1.757877,1.7578776 0 0 1 1.75788,1.757878 v 46.935332 z"
       style="fill:#2b2b2b;fill-rule:evenodd;stroke-width:0.0878939" />
    <path
       id="black_copy-5-9"
       data-name="black copy"
       class="cls-5"
       d="M 74.495438,91.766317 V 44.830985 a 1.757877,1.7578776 0 0 1 1.757877,-1.757878 h 85.081245 a 1.7527792,1.7527798 0 0 1 1.2604,0.532549 c -8.8e-4,-6.15e-4 -88.099522,48.160661 -88.099522,48.160661 z"
       style="fill:#3c3c3c;fill-rule:evenodd;stroke-width:0.0878939" />
  </g>
  <g
     id="g970"
     transform="matrix(0.08789385,0,0,0.08789388,39.781931,85.368995)">
    <path
       id="path1021"
       class="cls-4"
       d="m -433.56766,311.34051 v -617.71602 a 20,23.135431 0 0 1 20,-23.13543 h 967.99999 a 20,23.135431 0 0 1 20,23.13543 v 617.71602 z"
       style="display:inline;fill:#f4f4f4;fill-opacity:1;fill-rule:evenodd;stroke-width:1.07553" />
    <rect
       id="base-6"
       class="cls-1"
       x="-105.84314"
       y="462.7645"
       width="346"
       height="11"
       style="fill:#f4f4f4" />
    <rect
       id="stand-0"
       class="cls-2"
       x="-45.84314"
       y="344.7645"
       width="228"
       height="118"
       style="fill:#d2d2d2" />
    <rect
       id="white-5"
       class="cls-1"
       x="-435.84314"
       y="-271.2355"
       width="1008"
       height="616"
       rx="20"
       ry="20"
       style="fill:#f4f4f4" />
    <circle
       id="dot-2"
       class="cls-3"
       cx="66.15686"
       cy="281.7645"
       r="29"
       style="fill:#b1b1b1" />
    <path
       id="black-3"
       class="cls-4"
       d="m -435.84314,226.76451 v -534 a 20,20 0 0 1 20,-20 h 968 a 20,20 0 0 1 20,20 v 534 z"
       style="display:inline;fill:#2b2b2b;fill-rule:evenodd" />
    <path
       id="black_copy-5"
       data-name="black copy"
       class="cls-5"
       d="m -435.84314,226.76451 v -534 a 20,20 0 0 1 20,-20 h 968 a 19.942,19.942 0 0 1 14.34,6.059 c -0.01,-0.007 -1002.34,547.941 -1002.34,547.941 z"
       style="display:inline;fill:#3c3c3c;fill-rule:evenodd" />
  </g>
  <path
     style="fill:#008080;stroke-width:0.0787021"
     d="m 7.4290483,62.331814 c 0.9233503,-0.20088 1.8306303,-0.80599 2.4307403,-1.62118 0.5794994,-0.7872 0.6403994,-1.00444 1.1453994,-4.08584 0.42802,-2.61167 1.404991,-6.06411 2.449821,-8.65723 2.83594,-7.0384 7.4537,-13.06126 13.48444,-17.5875 3.868378,-2.90334 7.983818,-5.04225 12.588328,-6.54252 1.81123,-0.59015 5.18258,-1.45081 5.28436,-1.34904 0.021,0.021 -0.91459,1.63501 -2.07902,3.58675 -2.36557,3.96499 -2.48839,4.23021 -2.48441,5.36486 0.006,1.78689 1.00552,3.27126 2.666,3.96031 0.6666,0.27662 1.8013,0.37251 2.49078,0.21048 1.03431,-0.24305 1.95238,-0.85057 2.53904,-1.68017 0.554779,-0.78451 9.740128,-16.2615 9.939078,-16.74699 0.1001,-0.24429 0.22353,-0.71123 0.27428,-1.03766 0.18518,-1.19112 -0.30416,-2.64447 -1.18229,-3.51141 -0.33536,-0.33108 -2.41067,-1.6804 -8.471769,-5.5081402 -4.415189,-2.7883 -8.275529,-5.1756199 -8.578529,-5.3051499 -0.46429,-0.19847 -0.68285,-0.24118 -1.38988,-0.2716 -0.70772,-0.0305 -0.92792,-0.009 -1.40759,0.13661 -2.14267,0.65082 -3.41835,2.7885899 -2.9571,4.9554599 0.14496,0.68098 0.42501,1.25199 0.91637,1.86843 0.40436,0.50731 0.77997,0.76228 5.32237,3.6129502 1.65145,1.0364 2.99457,1.89296 2.9847,1.90346 -0.01,0.0105 -0.44023,0.10511 -0.95638,0.21026 -5.56911,1.13447 -11.58912,3.50059 -16.403418,6.44723 -3.55985,2.17885 -6.27181,4.29343 -9.19801,7.17191 -4.961641,4.88073 -8.6620704,10.38824 -11.1902207,16.65488 -1.59584,3.95566 -2.63189,7.75294 -3.25622,11.93454 -0.25591,1.714 -0.25695,2.20177 -0.006,2.99499 0.68495,2.16825 2.79946,3.37997 5.0455,2.89131 z"
     id="path1136" />
</svg>
